<svg xmlns="http://www.w3.org/2000/svg" width="512" height="311.48" viewBox="0 0 512 311.48"><path class="a" d="M118.38,118.38A38.85,38.85,0,1,0,79.53,79.54,38.84,38.84,0,0,0,118.38,118.38Z"/><path class="a" d="M98,177.56H458c14.21,0,27.37-4.87,36.89-13.53a47.26,47.26,0,0,0,11.26-15.34,45.07,45.07,0,0,0,4.1-18.76,46.07,46.07,0,0,0-4.31-19.34c-4.25-9.28-11.55-17.31-20.94-23.4s-20.9-10.41-34.46-12.88l-.64-.1-247.11-37a20.35,20.35,0,0,0-23.36,20.13v79.53H98a20.35,20.35,0,1,0,0,40.69Z"/><path class="a" d="M48.09,196.06v-172A24,24,0,1,0,0,24.05V311.48H48.09V244.15H463.9v67.33H512V196.06Z"/></svg>