<svg id="グループ_1" data-name="グループ 1" xmlns="http://www.w3.org/2000/svg" width="110.34" height="22.678" viewBox="0 0 110.34 22.678">
  <defs>
    <style>
      .cls-1 {
        fill: #08b;
      }

      .cls-2 {
        fill: #898989;
      }
    </style>
  </defs>
  <g id="グループ_1-2" data-name="グループ 1">
    <path id="path2220" class="cls-1" d="M0,22.677,12.35,2.5A4.785,4.785,0,0,1,16.435,0H31.743l-4.2,6.709c-.849,1.473-2.24,2.351-4.61,2.351H19.607l-1.728,2.7H22.3c1.518,0,2.1.729,1.419,1.9l-5.5,9.014H14.262l4.766-7.8h-5.6c-.678,0-.92-.471-.505-1.191L17.277,6.8a2.022,2.022,0,0,1,1.754-.925h4.662A1.524,1.524,0,0,0,24.846,5.1l1.031-1.737H17.636a3.378,3.378,0,0,0-2.709,1.424L3.955,22.677Z"/>
    <g id="use3589">
      <path id="path5133" class="cls-1" d="M33.916,11.878l-6.472,10.8H31.4l6.472-10.8Z"/>
    </g>
    <path id="path5133-2" class="cls-1" d="M27.325,11.878l-6.472,10.8h3.955l6.472-10.8Z"/>
  </g>
  <g id="グループ_2" data-name="グループ 2">
    <path id="パス_1" data-name="パス 1" class="cls-2" d="M54.986,4.71a38.872,38.872,0,0,1-2.281,4.87H64.348V21.2H61.519V19.96H52.666v1.329H49.991v-7.88A16.749,16.749,0,0,1,47,16.175a14.6,14.6,0,0,0-1.86-2.037,19.555,19.555,0,0,0,6.8-9.429H46.154V2.12H65.587V4.71ZM61.515,12.1H52.662v5.313h8.853Z"/>
    <path id="パス_2" data-name="パス 2" class="cls-2" d="M73,1.722V9.358c0,4.294-.333,8.788-3.277,12.13a11.677,11.677,0,0,0-2.257-1.9c2.523-2.877,2.812-6.6,2.812-10.249V1.722Zm6.732.952V19.142h-2.7V2.674Zm6.814-1v19.55H83.758V1.676Z"/>
    <path id="パス_3" data-name="パス 3" class="cls-2" d="M97.392,16.817a21.983,21.983,0,0,1-5.314,4.317,22.182,22.182,0,0,0-2.147-1.771A15.7,15.7,0,0,0,94.645,15.8Zm4.139-1.638v6.11H98.764v-6.11H93.827v.462H91.172V2.718h2.655V12.856h16.247v2.323Zm6.2-3.474H95.355V1.39h12.373Zm-2.591-8.522h-7.3V4.289h7.3Zm0,2.788h-7.3V7.123h7.3Zm0,2.811h-7.3V9.911h7.3Zm.044,6.84a46.731,46.731,0,0,1,5.158,3.9l-2.434,1.638a45.5,45.5,0,0,0-4.98-4.117Z"/>
  </g>
</svg>
