<svg xmlns="http://www.w3.org/2000/svg" width="446.6" height="512" viewBox="0 0 446.6 512"><path d="M421.78,0H133.17c-13.65,0-32.71,7.89-42.36,17.54L17.54,90.81C7.89,100.46,0,119.52,0,133.17v354A24.89,24.89,0,0,0,24.81,512h397a24.89,24.89,0,0,0,24.82-24.81V24.81A24.89,24.89,0,0,0,421.78,0ZM284.57,399.2a3.8,3.8,0,0,1-3.79,3.8H100.59a3.8,3.8,0,0,1-3.8-3.8V382.49a3.8,3.8,0,0,1,3.8-3.8H280.78a3.8,3.8,0,0,1,3.79,3.8Zm65.24-76.37a4.41,4.41,0,0,1-4.41,4.41H101.2a4.4,4.4,0,0,1-4.41-4.41V307.35a4.4,4.4,0,0,1,4.41-4.41H345.4a4.41,4.41,0,0,1,4.41,4.41v15.48Zm0-75.75a4.42,4.42,0,0,1-4.41,4.41H101.2a4.41,4.41,0,0,1-4.41-4.41V231.59a4.41,4.41,0,0,1,4.41-4.41H345.4a4.42,4.42,0,0,1,4.41,4.41v15.49Zm0-75.75a4.41,4.41,0,0,1-4.41,4.4H101.2a4.4,4.4,0,0,1-4.41-4.4V155.84a4.4,4.4,0,0,1,4.41-4.41H345.4a4.41,4.41,0,0,1,4.41,4.41v15.49Z"/></svg>