<svg xmlns="http://www.w3.org/2000/svg" viewBox="0 0 24 19.65"><circle cx="18.4" cy="4.77" r="1.65"/><path d="M15,9.29l-1.93,3.32-.19,0a1.55,1.55,0,0,0-.43.07L9,8.39a1.61,1.61,0,0,0,.19-.76,1.65,1.65,0,1,0-3,1L1.82,16.36l-.17,0A1.66,1.66,0,1,0,3.31,18,1.59,1.59,0,0,0,3,17L7.39,9.27l.17,0A1.55,1.55,0,0,0,8,9.22l3.44,4.27a1.61,1.61,0,0,0-.19.76,1.66,1.66,0,0,0,3.31,0,1.61,1.61,0,0,0-.33-1L16.15,10A5.92,5.92,0,0,1,15,9.29Z"/><path d="M23.64,8.68l-1.3-1.24.06-.09a4.77,4.77,0,0,0-4-7.35A4.77,4.77,0,1,0,21,8.77l.09-.06L22.31,10a.93.93,0,0,0,.69.36,1.08,1.08,0,0,0,1-1.05A.89.89,0,0,0,23.64,8.68Zm-3.29-2a2.76,2.76,0,1,1-3.91-3.91,2.79,2.79,0,0,1,3.91,0A2.78,2.78,0,0,1,20.35,6.72Z"/></svg>