<svg height="370" viewBox="0 0 370 370" width="370" xmlns="http://www.w3.org/2000/svg"><path d="m0 0h70v10h-70z"/><path d="m110 0h10v10h-10z"/><path d="m140 0h10v10h-10z"/><path d="m160 0h20v10h-20z"/><path d="m200 0h10v10h-10z"/><path d="m220 0h50v10h-50z"/><path d="m300 0h70v10h-70z"/><path d="m0 10h10v10h-10z"/><path d="m60 10h10v10h-10z"/><path d="m90 10h10v10h-10z"/><path d="m120 10h10v10h-10z"/><path d="m140 10h10v10h-10z"/><path d="m160 10h20v10h-20z"/><path d="m190 10h10v10h-10z"/><path d="m210 10h20v10h-20z"/><path d="m240 10h10v10h-10z"/><path d="m260 10h10v10h-10z"/><path d="m280 10h10v10h-10z"/><path d="m300 10h10v10h-10z"/><path d="m360 10h10v10h-10z"/><path d="m0 20h10v10h-10z"/><path d="m20 20h30v10h-30z"/><path d="m60 20h10v10h-10z"/><path d="m90 20h90v10h-90z"/><path d="m190 20h20v10h-20z"/><path d="m250 20h20v10h-20z"/><path d="m280 20h10v10h-10z"/><path d="m300 20h10v10h-10z"/><path d="m320 20h30v10h-30z"/><path d="m360 20h10v10h-10z"/><path d="m0 30h10v10h-10z"/><path d="m20 30h30v10h-30z"/><path d="m60 30h10v10h-10z"/><path d="m90 30h10v10h-10z"/><path d="m110 30h10v10h-10z"/><path d="m150 30h30v10h-30z"/><path d="m200 30h20v10h-20z"/><path d="m250 30h30v10h-30z"/><path d="m300 30h10v10h-10z"/><path d="m320 30h30v10h-30z"/><path d="m360 30h10v10h-10z"/><path d="m0 40h10v10h-10z"/><path d="m20 40h30v10h-30z"/><path d="m60 40h10v10h-10z"/><path d="m80 40h10v10h-10z"/><path d="m120 40h30v10h-30z"/><path d="m160 40h20v10h-20z"/><path d="m220 40h30v10h-30z"/><path d="m260 40h20v10h-20z"/><path d="m300 40h10v10h-10z"/><path d="m320 40h30v10h-30z"/><path d="m360 40h10v10h-10z"/><path d="m0 50h10v10h-10z"/><path d="m60 50h10v10h-10z"/><path d="m90 50h20v10h-20z"/><path d="m130 50h30v10h-30z"/><path d="m190 50h20v10h-20z"/><path d="m220 50h10v10h-10z"/><path d="m240 50h20v10h-20z"/><path d="m300 50h10v10h-10z"/><path d="m360 50h10v10h-10z"/><path d="m0 60h70v10h-70z"/><path d="m80 60h10v10h-10z"/><path d="m100 60h10v10h-10z"/><path d="m120 60h10v10h-10z"/><path d="m140 60h10v10h-10z"/><path d="m160 60h10v10h-10z"/><path d="m180 60h10v10h-10z"/><path d="m200 60h10v10h-10z"/><path d="m220 60h10v10h-10z"/><path d="m240 60h10v10h-10z"/><path d="m260 60h10v10h-10z"/><path d="m280 60h10v10h-10z"/><path d="m300 60h70v10h-70z"/><path d="m80 70h10v10h-10z"/><path d="m100 70h10v10h-10z"/><path d="m130 70h20v10h-20z"/><path d="m180 70h30v10h-30z"/><path d="m240 70h10v10h-10z"/><path d="m270 70h20v10h-20z"/><path d="m20 80h20v10h-20z"/><path d="m60 80h30v10h-30z"/><path d="m100 80h10v10h-10z"/><path d="m130 80h40v10h-40z"/><path d="m200 80h30v10h-30z"/><path d="m240 80h20v10h-20z"/><path d="m270 80h40v10h-40z"/><path d="m320 80h10v10h-10z"/><path d="m30 90h20v10h-20z"/><path d="m70 90h10v10h-10z"/><path d="m90 90h10v10h-10z"/><path d="m120 90h10v10h-10z"/><path d="m140 90h30v10h-30z"/><path d="m180 90h10v10h-10z"/><path d="m220 90h10v10h-10z"/><path d="m250 90h40v10h-40z"/><path d="m300 90h10v10h-10z"/><path d="m340 90h10v10h-10z"/><path d="m0 100h50v10h-50z"/><path d="m60 100h50v10h-50z"/><path d="m120 100h10v10h-10z"/><path d="m150 100h20v10h-20z"/><path d="m180 100h20v10h-20z"/><path d="m210 100h50v10h-50z"/><path d="m270 100h10v10h-10z"/><path d="m290 100h10v10h-10z"/><path d="m310 100h10v10h-10z"/><path d="m340 100h10v10h-10z"/><path d="m0 110h20v10h-20z"/><path d="m30 110h10v10h-10z"/><path d="m70 110h20v10h-20z"/><path d="m100 110h10v10h-10z"/><path d="m150 110h20v10h-20z"/><path d="m180 110h10v10h-10z"/><path d="m200 110h80v10h-80z"/><path d="m320 110h30v10h-30z"/><path d="m360 110h10v10h-10z"/><path d="m0 120h10v10h-10z"/><path d="m20 120h10v10h-10z"/><path d="m40 120h50v10h-50z"/><path d="m100 120h30v10h-30z"/><path d="m150 120h10v10h-10z"/><path d="m180 120h30v10h-30z"/><path d="m220 120h50v10h-50z"/><path d="m290 120h20v10h-20z"/><path d="m320 120h30v10h-30z"/><path d="m360 120h10v10h-10z"/><path d="m10 130h10v10h-10z"/><path d="m30 130h10v10h-10z"/><path d="m100 130h10v10h-10z"/><path d="m140 130h10v10h-10z"/><path d="m160 130h10v10h-10z"/><path d="m210 130h20v10h-20z"/><path d="m250 130h10v10h-10z"/><path d="m270 130h20v10h-20z"/><path d="m300 130h30v10h-30z"/><path d="m340 130h10v10h-10z"/><path d="m360 130h10v10h-10z"/><path d="m20 140h10v10h-10z"/><path d="m40 140h10v10h-10z"/><path d="m60 140h10v10h-10z"/><path d="m110 140h10v10h-10z"/><path d="m140 140h40v10h-40z"/><path d="m200 140h10v10h-10z"/><path d="m230 140h30v10h-30z"/><path d="m280 140h20v10h-20z"/><path d="m310 140h20v10h-20z"/><path d="m340 140h20v10h-20z"/><path d="m10 150h30v10h-30z"/><path d="m90 150h10v10h-10z"/><path d="m160 150h10v10h-10z"/><path d="m190 150h10v10h-10z"/><path d="m210 150h10v10h-10z"/><path d="m260 150h20v10h-20z"/><path d="m310 150h20v10h-20z"/><path d="m350 150h10v10h-10z"/><path d="m0 160h10v10h-10z"/><path d="m40 160h10v10h-10z"/><path d="m60 160h20v10h-20z"/><path d="m90 160h30v10h-30z"/><path d="m140 160h10v10h-10z"/><path d="m160 160h10v10h-10z"/><path d="m190 160h100v10h-100z"/><path d="m310 160h10v10h-10z"/><path d="m330 160h20v10h-20z"/><path d="m360 160h10v10h-10z"/><path d="m20 170h20v10h-20z"/><path d="m70 170h20v10h-20z"/><path d="m110 170h10v10h-10z"/><path d="m140 170h30v10h-30z"/><path d="m180 170h30v10h-30z"/><path d="m270 170h20v10h-20z"/><path d="m300 170h10v10h-10z"/><path d="m340 170h10v10h-10z"/><path d="m360 170h10v10h-10z"/><path d="m10 180h10v10h-10z"/><path d="m40 180h30v10h-30z"/><path d="m80 180h110v10h-110z"/><path d="m200 180h60v10h-60z"/><path d="m270 180h10v10h-10z"/><path d="m310 180h30v10h-30z"/><path d="m350 180h20v10h-20z"/><path d="m10 190h20v10h-20z"/><path d="m70 190h10v10h-10z"/><path d="m110 190h20v10h-20z"/><path d="m170 190h10v10h-10z"/><path d="m190 190h10v10h-10z"/><path d="m240 190h10v10h-10z"/><path d="m280 190h10v10h-10z"/><path d="m310 190h10v10h-10z"/><path d="m330 190h10v10h-10z"/><path d="m50 200h30v10h-30z"/><path d="m100 200h20v10h-20z"/><path d="m140 200h20v10h-20z"/><path d="m170 200h30v10h-30z"/><path d="m210 200h20v10h-20z"/><path d="m260 200h10v10h-10z"/><path d="m280 200h20v10h-20z"/><path d="m320 200h10v10h-10z"/><path d="m350 200h10v10h-10z"/><path d="m0 210h10v10h-10z"/><path d="m20 210h30v10h-30z"/><path d="m80 210h10v10h-10z"/><path d="m100 210h10v10h-10z"/><path d="m130 210h20v10h-20z"/><path d="m160 210h20v10h-20z"/><path d="m190 210h10v10h-10z"/><path d="m210 210h10v10h-10z"/><path d="m240 210h20v10h-20z"/><path d="m290 210h10v10h-10z"/><path d="m310 210h10v10h-10z"/><path d="m30 220h40v10h-40z"/><path d="m80 220h10v10h-10z"/><path d="m120 220h20v10h-20z"/><path d="m160 220h50v10h-50z"/><path d="m230 220h30v10h-30z"/><path d="m300 220h10v10h-10z"/><path d="m320 220h20v10h-20z"/><path d="m350 220h10v10h-10z"/><path d="m0 230h20v10h-20z"/><path d="m90 230h10v10h-10z"/><path d="m130 230h10v10h-10z"/><path d="m150 230h20v10h-20z"/><path d="m180 230h10v10h-10z"/><path d="m210 230h20v10h-20z"/><path d="m240 230h10v10h-10z"/><path d="m270 230h20v10h-20z"/><path d="m300 230h10v10h-10z"/><path d="m330 230h30v10h-30z"/><path d="m10 240h10v10h-10z"/><path d="m40 240h50v10h-50z"/><path d="m100 240h20v10h-20z"/><path d="m130 240h20v10h-20z"/><path d="m160 240h30v10h-30z"/><path d="m200 240h30v10h-30z"/><path d="m240 240h10v10h-10z"/><path d="m260 240h10v10h-10z"/><path d="m280 240h20v10h-20z"/><path d="m320 240h30v10h-30z"/><path d="m360 240h10v10h-10z"/><path d="m30 250h10v10h-10z"/><path d="m80 250h10v10h-10z"/><path d="m100 250h20v10h-20z"/><path d="m130 250h40v10h-40z"/><path d="m180 250h70v10h-70z"/><path d="m260 250h10v10h-10z"/><path d="m290 250h10v10h-10z"/><path d="m320 250h10v10h-10z"/><path d="m340 250h10v10h-10z"/><path d="m360 250h10v10h-10z"/><path d="m10 260h10v10h-10z"/><path d="m40 260h10v10h-10z"/><path d="m60 260h30v10h-30z"/><path d="m100 260h20v10h-20z"/><path d="m130 260h20v10h-20z"/><path d="m160 260h40v10h-40z"/><path d="m230 260h10v10h-10z"/><path d="m310 260h10v10h-10z"/><path d="m350 260h10v10h-10z"/><path d="m0 270h10v10h-10z"/><path d="m70 270h10v10h-10z"/><path d="m100 270h10v10h-10z"/><path d="m160 270h20v10h-20z"/><path d="m190 270h10v10h-10z"/><path d="m220 270h20v10h-20z"/><path d="m260 270h20v10h-20z"/><path d="m290 270h10v10h-10z"/><path d="m360 270h10v10h-10z"/><path d="m30 280h50v10h-50z"/><path d="m90 280h10v10h-10z"/><path d="m110 280h50v10h-50z"/><path d="m190 280h40v10h-40z"/><path d="m250 280h10v10h-10z"/><path d="m280 280h80v10h-80z"/><path d="m80 290h20v10h-20z"/><path d="m120 290h10v10h-10z"/><path d="m170 290h20v10h-20z"/><path d="m200 290h20v10h-20z"/><path d="m230 290h20v10h-20z"/><path d="m260 290h10v10h-10z"/><path d="m280 290h10v10h-10z"/><path d="m320 290h30v10h-30z"/><path d="m360 290h10v10h-10z"/><path d="m0 300h70v10h-70z"/><path d="m80 300h20v10h-20z"/><path d="m120 300h10v10h-10z"/><path d="m150 300h10v10h-10z"/><path d="m180 300h10v10h-10z"/><path d="m200 300h10v10h-10z"/><path d="m220 300h10v10h-10z"/><path d="m250 300h20v10h-20z"/><path d="m280 300h10v10h-10z"/><path d="m300 300h10v10h-10z"/><path d="m320 300h20v10h-20z"/><path d="m350 300h20v10h-20z"/><path d="m0 310h10v10h-10z"/><path d="m60 310h10v10h-10z"/><path d="m90 310h10v10h-10z"/><path d="m120 310h10v10h-10z"/><path d="m140 310h20v10h-20z"/><path d="m200 310h10v10h-10z"/><path d="m220 310h10v10h-10z"/><path d="m240 310h10v10h-10z"/><path d="m260 310h30v10h-30z"/><path d="m320 310h20v10h-20z"/><path d="m350 310h10v10h-10z"/><path d="m0 320h10v10h-10z"/><path d="m20 320h30v10h-30z"/><path d="m60 320h10v10h-10z"/><path d="m90 320h50v10h-50z"/><path d="m150 320h20v10h-20z"/><path d="m190 320h20v10h-20z"/><path d="m220 320h10v10h-10z"/><path d="m240 320h10v10h-10z"/><path d="m260 320h10v10h-10z"/><path d="m280 320h60v10h-60z"/><path d="m350 320h10v10h-10z"/><path d="m0 330h10v10h-10z"/><path d="m20 330h30v10h-30z"/><path d="m60 330h10v10h-10z"/><path d="m80 330h10v10h-10z"/><path d="m130 330h80v10h-80z"/><path d="m240 330h10v10h-10z"/><path d="m260 330h10v10h-10z"/><path d="m280 330h10v10h-10z"/><path d="m300 330h10v10h-10z"/><path d="m320 330h20v10h-20z"/><path d="m0 340h10v10h-10z"/><path d="m20 340h30v10h-30z"/><path d="m60 340h10v10h-10z"/><path d="m80 340h10v10h-10z"/><path d="m100 340h20v10h-20z"/><path d="m160 340h20v10h-20z"/><path d="m190 340h10v10h-10z"/><path d="m220 340h30v10h-30z"/><path d="m260 340h10v10h-10z"/><path d="m300 340h10v10h-10z"/><path d="m320 340h40v10h-40z"/><path d="m0 350h10v10h-10z"/><path d="m60 350h10v10h-10z"/><path d="m90 350h10v10h-10z"/><path d="m120 350h20v10h-20z"/><path d="m180 350h10v10h-10z"/><path d="m200 350h10v10h-10z"/><path d="m250 350h20v10h-20z"/><path d="m300 350h50v10h-50z"/><path d="m0 360h70v10h-70z"/><path d="m90 360h30v10h-30z"/><path d="m140 360h10v10h-10z"/><path d="m160 360h40v10h-40z"/><path d="m220 360h10v10h-10z"/><path d="m250 360h20v10h-20z"/><path d="m290 360h30v10h-30z"/><path d="m330 360h40v10h-40z"/></svg>