<svg xmlns="http://www.w3.org/2000/svg" width="512" height="512" viewBox="0 0 512 512"><path class="a" d="M425.36,117.09l56.2,56.19L512,142.84,369.17,0,338.73,30.44l56.18,56.22-51,51L223,16.78,192.53,47.25l43,43L0,325.75l77.91,77.91L0,481.56,47.45,495l60.89-60.91L186.28,512l235.5-235.5,43,43L495.22,289,374.31,168.12ZM391.33,246l-205,205.06L60.89,325.75l41.2-41.2L149,331.45l17.93-17.92L120,266.62l35.81-35.81,46.91,46.91,17.9-17.91-46.89-46.9,35.82-35.82L256.44,224l17.9-17.92-46.87-46.87L266,120.67Z"/></svg>