<svg xmlns="http://www.w3.org/2000/svg" viewBox="0 0 24 24.38"><path d="m0 0h24v24h-24z" fill="none"/><path d="M23.55,16.11c-.49-.3-1.18-.08-1.84.67L19,15.11a7.61,7.61,0,0,0,.55-5.33l1.85-.55a1.27,1.27,0,0,0,1.46.73c.68-.2,1-1,.72-2S22.52,6.4,21.85,6.6A1.29,1.29,0,0,0,21,8.06l-1.89.56a7.61,7.61,0,0,0-2.2-2.88l.71-1.14c.68.25,1.23.12,1.48-.29s.06-1.27-.89-1.85-1.73-.5-2,0-.13,1,.42,1.5l-.67,1.09a7.63,7.63,0,0,0-3.82-1,7.21,7.21,0,0,0-1.48.15L10,2.29c.75-.46,1-1.06.85-1.58S9.65-.23,8.39.23,6.61,1.48,6.85,2.14s.82.81,1.72.66l.66,1.8a7.67,7.67,0,0,0-4,3.76L2.67,7.17c.18-.78,0-1.36-.49-1.58S.83,5.73.31,6.86,0,8.84.56,9.11s1.06,0,1.55-.7L4.74,9.62a7.54,7.54,0,0,0-.3,2.09,7.67,7.67,0,0,0,.21,1.74L3,14.18c-.5-.69-1.12-.93-1.63-.7S.5,14.67,1,15.87s1.35,1.63,2,1.35.76-.87.56-1.74l1.51-.67a7.66,7.66,0,0,0,3,3.43L7.2,19.88a1.27,1.27,0,0,0-1.56.5c-.35.61-.07,1.42.91,2s1.81.36,2.15-.26a1.28,1.28,0,0,0-.43-1.62L9.2,18.8a7.64,7.64,0,0,0,2.92.58,7.42,7.42,0,0,0,1.05-.08l.73,3.23c-.7.3-1,.75-.93,1.18s.86.83,2,.58,1.68-.84,1.56-1.38-.61-.71-1.39-.66L14.41,19a7.63,7.63,0,0,0,3.71-2.56l2.75,1.69c-.34.9-.22,1.59.26,1.89s1.52,0,2.29-1.31S24.15,16.48,23.55,16.11Z"/></svg>